# xmcd
#
# Track frame offsets: 
#        150
#        13555
#        29045
#        41272
#        57932
#        78035
#        89222
#        110035
#        128367
#        140675
#        152280
#        164105
#        187280
#        202157
#        226384
#
# Disc length: 3276 seconds
#
# Revision: 0
# Processed by: cddbd v1.5.2PL0 Copyright (c) Steve Scherf et al.
# Submitted via: ExactAudioCopy v0.99pb4
#
DISCID=d00cca0f
DTITLE=Mark Green Blues Band - Preachin' Blues
DYEAR=1995
DGENRE=Blues
TTITLE0=It Takes Time
TTITLE1=Preachin' Blues
TTITLE2=I Don't Know
TTITLE3=Early In The Morning
TTITLE4=Lights On, Nobody Home
TTITLE5=Chicago Bound
TTITLE6=Evil
TTITLE7=Cold, Cold Feeling
TTITLE8=Johnson Machine Gun
TTITLE9=Tiger In Your Tank
TTITLE10=Can't Hold Out
TTITLE11=Ten Years Ago
TTITLE12=Wild About You
TTITLE13=Cut You Loose
TTITLE14=75 Highway
EXTD=
EXTT0=
EXTT1=
EXTT2=
EXTT3=
EXTT4=
EXTT5=
EXTT6=
EXTT7=
EXTT8=
EXTT9=
EXTT10=
EXTT11=
EXTT12=
EXTT13=
EXTT14=
PLAYORDER=
